<mxfile host="app.diagrams.net" agent="Mozilla/5.0 (Windows NT 10.0; Win64; x64) AppleWebKit/537.36 (KHTML, like Gecko) Chrome/133.0.0.0 Safari/537.36" version="26.1.0">
  <diagram id="R2lEEEUBdFMjLlhIrx00" name="Page-1">
    <mxGraphModel dx="2924" dy="2232" grid="1" gridSize="10" guides="1" tooltips="1" connect="1" arrows="1" fold="1" page="1" pageScale="1" pageWidth="850" pageHeight="1100" math="0" shadow="0" extFonts="Permanent Marker^https://fonts.googleapis.com/css?family=Permanent+Marker">
      <root>
        <mxCell id="0" />
        <mxCell id="1" parent="0" />
        <mxCell id="E6jkqPbQKa4cJhccXn8V-61" value="Registered User" style="html=1;overflow=block;blockSpacing=1;whiteSpace=wrap;fontSize=16.7;spacing=9;rounded=1;absoluteArcSize=1;arcSize=9;strokeWidth=NaN;lucidId=gRqY9Qkse681;labelBackgroundColor=none;" parent="1" vertex="1">
          <mxGeometry x="165" y="270" width="120" height="90" as="geometry" />
        </mxCell>
        <mxCell id="E6jkqPbQKa4cJhccXn8V-63" value="Private Info" style="html=1;overflow=block;blockSpacing=1;whiteSpace=wrap;rhombus;fontSize=16.7;spacing=9;rounded=1;absoluteArcSize=1;arcSize=9;strokeWidth=NaN;lucidId=yRqYLSJQ5PU0;labelBackgroundColor=none;" parent="1" vertex="1">
          <mxGeometry x="165" y="115" width="120" height="90" as="geometry" />
        </mxCell>
        <mxCell id="E6jkqPbQKa4cJhccXn8V-78" value="Login" style="html=1;overflow=block;blockSpacing=1;whiteSpace=wrap;fontSize=16.7;spacing=9;rounded=1;absoluteArcSize=1;arcSize=9;strokeWidth=NaN;lucidId=dUqYwRhcH~zG;labelBackgroundColor=none;" parent="1" vertex="1">
          <mxGeometry x="165" y="-30" width="120" height="50" as="geometry" />
        </mxCell>
        <mxCell id="E6jkqPbQKa4cJhccXn8V-86" value="" style="html=1;jettySize=18;whiteSpace=wrap;fontSize=13;strokeOpacity=100;strokeWidth=0.8;rounded=1;arcSize=12;edgeStyle=orthogonalEdgeStyle;startArrow=none;endArrow=block;endFill=1;exitX=1.006;exitY=0.5;exitPerimeter=0;entryX=0.242;entryY=0.5;entryPerimeter=0;lucidId=aYqYnv5.vwqL;fontColor=#FFFFFF;labelBackgroundColor=none;" parent="1" source="E6jkqPbQKa4cJhccXn8V-61" target="E6jkqPbQKa4cJhccXn8V-87" edge="1">
          <mxGeometry width="100" height="100" relative="1" as="geometry">
            <Array as="points" />
          </mxGeometry>
        </mxCell>
        <mxCell id="E6jkqPbQKa4cJhccXn8V-87" value="IS A" style="html=1;overflow=block;blockSpacing=1;whiteSpace=wrap;triangle;direction=south;anchorPointDirection=0;fontSize=16.7;spacing=9;rounded=1;absoluteArcSize=1;arcSize=9;strokeWidth=NaN;lucidId=aYqYB_8z1lbE;labelBackgroundColor=none;" parent="1" vertex="1">
          <mxGeometry x="540" y="270" width="120" height="90" as="geometry" />
        </mxCell>
        <mxCell id="E6jkqPbQKa4cJhccXn8V-88" value="" style="html=1;jettySize=18;whiteSpace=wrap;fontSize=13;strokeOpacity=100;strokeWidth=0.8;rounded=1;arcSize=12;edgeStyle=orthogonalEdgeStyle;startArrow=none;endArrow=block;endFill=1;entryX=0.5;entryY=1;lucidId=lYqYbwCCiXf.;fontColor=#FFFFFF;labelBackgroundColor=none;entryDx=0;entryDy=0;exitX=0.5;exitY=0;exitDx=0;exitDy=0;" parent="1" source="E6jkqPbQKa4cJhccXn8V-89" target="E6jkqPbQKa4cJhccXn8V-87" edge="1">
          <mxGeometry width="100" height="100" relative="1" as="geometry">
            <Array as="points">
              <mxPoint x="780" y="610" />
              <mxPoint x="600" y="610" />
            </Array>
            <mxPoint x="540" y="670" as="sourcePoint" />
          </mxGeometry>
        </mxCell>
        <mxCell id="E6jkqPbQKa4cJhccXn8V-89" value="Helpdesk" style="html=1;overflow=block;blockSpacing=1;whiteSpace=wrap;fontSize=16.7;spacing=9;rounded=1;absoluteArcSize=1;arcSize=9;strokeWidth=NaN;lucidId=lYqY2L1.5rSc;labelBackgroundColor=none;" parent="1" vertex="1">
          <mxGeometry x="720" y="690" width="120" height="90" as="geometry" />
        </mxCell>
        <mxCell id="E6jkqPbQKa4cJhccXn8V-90" value="" style="html=1;jettySize=18;whiteSpace=wrap;fontSize=13;strokeOpacity=100;strokeWidth=0.8;rounded=1;arcSize=12;edgeStyle=orthogonalEdgeStyle;startArrow=none;endArrow=block;endFill=1;entryX=1;entryY=0.5;lucidId=nYqYP9XM1~Z7;fontColor=#FFFFFF;labelBackgroundColor=none;entryDx=0;entryDy=0;exitX=0;exitY=0.5;exitDx=0;exitDy=0;" parent="1" source="E6jkqPbQKa4cJhccXn8V-91" target="E6jkqPbQKa4cJhccXn8V-87" edge="1">
          <mxGeometry width="100" height="100" relative="1" as="geometry">
            <Array as="points" />
            <mxPoint x="660" y="520" as="sourcePoint" />
          </mxGeometry>
        </mxCell>
        <mxCell id="E6jkqPbQKa4cJhccXn8V-91" value="Seller" style="html=1;overflow=block;blockSpacing=1;whiteSpace=wrap;fontSize=16.7;spacing=9;rounded=1;absoluteArcSize=1;arcSize=9;strokeWidth=NaN;lucidId=nYqYoQrnCQ-k;labelBackgroundColor=none;" parent="1" vertex="1">
          <mxGeometry x="740" y="460" width="120" height="90" as="geometry" />
        </mxCell>
        <mxCell id="E6jkqPbQKa4cJhccXn8V-92" value="" style="html=1;jettySize=18;whiteSpace=wrap;fontSize=13;strokeOpacity=100;strokeWidth=0.8;rounded=1;arcSize=12;edgeStyle=orthogonalEdgeStyle;startArrow=none;endArrow=block;endFill=1;entryX=0.5;entryY=0;lucidId=oYqYItvIhrHn;fontColor=#FFFFFF;labelBackgroundColor=none;entryDx=0;entryDy=0;exitX=0.5;exitY=1;exitDx=0;exitDy=0;" parent="1" source="E6jkqPbQKa4cJhccXn8V-93" target="E6jkqPbQKa4cJhccXn8V-87" edge="1">
          <mxGeometry width="100" height="100" relative="1" as="geometry">
            <Array as="points" />
            <mxPoint x="650" y="90" as="sourcePoint" />
          </mxGeometry>
        </mxCell>
        <mxCell id="E6jkqPbQKa4cJhccXn8V-93" value="Buyer" style="html=1;overflow=block;blockSpacing=1;whiteSpace=wrap;fontSize=16.7;spacing=9;rounded=1;absoluteArcSize=1;arcSize=9;strokeWidth=NaN;lucidId=oYqY3jGOQ7Ny;labelBackgroundColor=none;" parent="1" vertex="1">
          <mxGeometry x="730" y="-45" width="120" height="90" as="geometry" />
        </mxCell>
        <mxCell id="E6jkqPbQKa4cJhccXn8V-101" value="Transaction" style="html=1;overflow=block;blockSpacing=1;whiteSpace=wrap;rhombus;fontSize=16.7;spacing=9;rounded=1;absoluteArcSize=1;arcSize=9;strokeWidth=NaN;lucidId=QZqYzLfZw0-F;labelBackgroundColor=none;" parent="1" vertex="1">
          <mxGeometry x="1140" y="-45" width="120" height="90" as="geometry" />
        </mxCell>
        <mxCell id="E6jkqPbQKa4cJhccXn8V-105" value="Revoked Order" style="html=1;overflow=block;blockSpacing=1;whiteSpace=wrap;rhombus;fontSize=16.7;spacing=9;rounded=1;absoluteArcSize=1;arcSize=9;strokeWidth=NaN;lucidId=.ZqY.2ZhY5br;labelBackgroundColor=none;" parent="1" vertex="1">
          <mxGeometry x="1170" y="170" width="120" height="90" as="geometry" />
        </mxCell>
        <mxCell id="E6jkqPbQKa4cJhccXn8V-106" value="" style="html=1;jettySize=18;whiteSpace=wrap;fontSize=13;strokeOpacity=100;strokeWidth=0.8;rounded=1;arcSize=12;edgeStyle=orthogonalEdgeStyle;startArrow=none;endArrow=block;endFill=1;exitX=0.5;exitY=1;entryX=0;entryY=0.5;lucidId=A0qYV~RuDArJ;fontColor=#FFFFFF;labelBackgroundColor=none;exitDx=0;exitDy=0;entryDx=0;entryDy=0;" parent="1" source="E6jkqPbQKa4cJhccXn8V-91" target="E6jkqPbQKa4cJhccXn8V-107" edge="1">
          <mxGeometry width="100" height="100" relative="1" as="geometry">
            <Array as="points">
              <mxPoint x="780" y="580" />
              <mxPoint x="840" y="580" />
              <mxPoint x="840" y="645" />
              <mxPoint x="1210" y="645" />
            </Array>
            <mxPoint x="780" y="580.9999999999998" as="sourcePoint" />
            <mxPoint x="1275" y="690.0000000000002" as="targetPoint" />
          </mxGeometry>
        </mxCell>
        <mxCell id="E6jkqPbQKa4cJhccXn8V-107" value="Publish" style="html=1;overflow=block;blockSpacing=1;whiteSpace=wrap;rhombus;fontSize=16.7;spacing=9;rounded=1;absoluteArcSize=1;arcSize=9;strokeWidth=NaN;lucidId=A0qYmbD64PyA;labelBackgroundColor=none;" parent="1" vertex="1">
          <mxGeometry x="1210" y="700" width="120" height="90" as="geometry" />
        </mxCell>
        <mxCell id="E6jkqPbQKa4cJhccXn8V-109" value="Product" style="html=1;overflow=block;blockSpacing=1;whiteSpace=wrap;fontSize=16.7;spacing=9;rounded=1;absoluteArcSize=1;arcSize=9;strokeWidth=NaN;lucidId=Y0qYCAMnRt-L;labelBackgroundColor=none;" parent="1" vertex="1">
          <mxGeometry x="1530" y="240" width="120" height="90" as="geometry" />
        </mxCell>
        <mxCell id="E6jkqPbQKa4cJhccXn8V-110" value="" style="html=1;jettySize=18;whiteSpace=wrap;fontSize=13;strokeOpacity=100;strokeWidth=0.8;rounded=1;arcSize=12;edgeStyle=orthogonalEdgeStyle;startArrow=none;endArrow=block;endFill=1;entryX=1;entryY=0.5;lucidId=60qYMjgFN~Xl;fontColor=#FFFFFF;labelBackgroundColor=none;entryDx=0;entryDy=0;exitX=0;exitY=0.5;exitDx=0;exitDy=0;" parent="1" source="E6jkqPbQKa4cJhccXn8V-111" target="E6jkqPbQKa4cJhccXn8V-107" edge="1">
          <mxGeometry width="100" height="100" relative="1" as="geometry">
            <Array as="points" />
            <mxPoint x="1430" y="770" as="sourcePoint" />
          </mxGeometry>
        </mxCell>
        <mxCell id="E6jkqPbQKa4cJhccXn8V-111" value="Category Hierarchy" style="html=1;overflow=block;blockSpacing=1;whiteSpace=wrap;fontSize=16.7;spacing=9;rounded=1;absoluteArcSize=1;arcSize=9;strokeWidth=NaN;lucidId=60qYJcSn1ibH;labelBackgroundColor=none;" parent="1" vertex="1">
          <mxGeometry x="1530" y="600" width="120" height="90" as="geometry" />
        </mxCell>
        <mxCell id="E6jkqPbQKa4cJhccXn8V-112" value="" style="html=1;jettySize=18;whiteSpace=wrap;fontSize=13;strokeOpacity=100;strokeWidth=0.8;rounded=1;arcSize=12;edgeStyle=orthogonalEdgeStyle;startArrow=none;endArrow=block;endFill=1;exitX=0.5;exitY=-0.008;exitPerimeter=0;entryX=0.5;entryY=0.992;entryPerimeter=0;lucidId=c1qYmt3CT.yc;fontColor=#FFFFFF;labelBackgroundColor=none;" parent="1" source="E6jkqPbQKa4cJhccXn8V-111" target="E6jkqPbQKa4cJhccXn8V-113" edge="1">
          <mxGeometry width="100" height="100" relative="1" as="geometry">
            <Array as="points" />
          </mxGeometry>
        </mxCell>
        <mxCell id="E6jkqPbQKa4cJhccXn8V-113" value="Contains" style="html=1;overflow=block;blockSpacing=1;whiteSpace=wrap;rhombus;fontSize=16.7;spacing=9;rounded=1;absoluteArcSize=1;arcSize=9;strokeWidth=NaN;lucidId=c1qYdQpgnGai;labelBackgroundColor=none;" parent="1" vertex="1">
          <mxGeometry x="1515" y="390" width="120" height="90" as="geometry" />
        </mxCell>
        <mxCell id="E6jkqPbQKa4cJhccXn8V-114" value="" style="html=1;jettySize=18;whiteSpace=wrap;fontSize=13;strokeOpacity=100;strokeWidth=0.8;rounded=1;arcSize=12;edgeStyle=orthogonalEdgeStyle;startArrow=none;endArrow=block;endFill=1;entryX=0.5;entryY=0;lucidId=h1qYy.CWBZTP;fontColor=#FFFFFF;labelBackgroundColor=none;entryDx=0;entryDy=0;exitX=0.25;exitY=1;exitDx=0;exitDy=0;" parent="1" source="E6jkqPbQKa4cJhccXn8V-109" target="E6jkqPbQKa4cJhccXn8V-113" edge="1">
          <mxGeometry width="100" height="100" relative="1" as="geometry">
            <Array as="points" />
            <mxPoint x="1575" y="330" as="sourcePoint" />
          </mxGeometry>
        </mxCell>
        <mxCell id="E6jkqPbQKa4cJhccXn8V-115" value="" style="html=1;jettySize=18;whiteSpace=wrap;fontSize=13;strokeOpacity=100;strokeWidth=0.8;rounded=1;arcSize=12;edgeStyle=orthogonalEdgeStyle;startArrow=none;endArrow=block;endFill=1;entryX=1;entryY=0;lucidId=v1qYLyllkB-g;fontColor=#FFFFFF;labelBackgroundColor=none;entryDx=0;entryDy=0;exitX=0;exitY=1;exitDx=0;exitDy=0;" parent="1" source="E6jkqPbQKa4cJhccXn8V-116" target="E6jkqPbQKa4cJhccXn8V-111" edge="1">
          <mxGeometry width="100" height="100" relative="1" as="geometry">
            <Array as="points" />
            <mxPoint x="1690" y="435" as="sourcePoint" />
          </mxGeometry>
        </mxCell>
        <mxCell id="E6jkqPbQKa4cJhccXn8V-116" value="Categories" style="html=1;overflow=block;blockSpacing=1;whiteSpace=wrap;fontSize=16.7;spacing=9;rounded=1;absoluteArcSize=1;arcSize=9;strokeWidth=NaN;lucidId=v1qYH23R-nWq;labelBackgroundColor=none;" parent="1" vertex="1">
          <mxGeometry x="1790" y="470" width="120" height="90" as="geometry" />
        </mxCell>
        <mxCell id="E6jkqPbQKa4cJhccXn8V-117" value="" style="html=1;jettySize=18;whiteSpace=wrap;fontSize=13;strokeOpacity=100;strokeWidth=0.8;rounded=1;arcSize=12;edgeStyle=orthogonalEdgeStyle;startArrow=none;endArrow=block;endFill=1;exitX=1;exitY=0;lucidId=I1qY8gbBKlzK;fontColor=#FFFFFF;labelBackgroundColor=none;exitDx=0;exitDy=0;entryX=0.5;entryY=1;entryDx=0;entryDy=0;" parent="1" source="E6jkqPbQKa4cJhccXn8V-107" target="E6jkqPbQKa4cJhccXn8V-109" edge="1">
          <mxGeometry width="100" height="100" relative="1" as="geometry">
            <Array as="points">
              <mxPoint x="1305" y="360" />
              <mxPoint x="1575" y="360" />
            </Array>
            <mxPoint x="1350" y="400" as="targetPoint" />
          </mxGeometry>
        </mxCell>
        <mxCell id="E6jkqPbQKa4cJhccXn8V-121" value="" style="endArrow=none;html=1;rounded=0;entryX=0;entryY=0;entryDx=0;entryDy=0;" parent="1" source="E6jkqPbQKa4cJhccXn8V-101" target="E6jkqPbQKa4cJhccXn8V-109" edge="1">
          <mxGeometry width="50" height="50" relative="1" as="geometry">
            <mxPoint x="1460" y="320" as="sourcePoint" />
            <mxPoint x="1510" y="270" as="targetPoint" />
          </mxGeometry>
        </mxCell>
        <mxCell id="E6jkqPbQKa4cJhccXn8V-122" value="Discounts" style="rounded=0;whiteSpace=wrap;html=1;strokeWidth=8;" parent="1" vertex="1">
          <mxGeometry x="1780" y="255" width="120" height="60" as="geometry" />
        </mxCell>
        <mxCell id="E6jkqPbQKa4cJhccXn8V-125" value="" style="curved=1;endArrow=classic;html=1;rounded=0;exitX=0.5;exitY=1;exitDx=0;exitDy=0;entryX=1;entryY=0.5;entryDx=0;entryDy=0;" parent="1" source="E6jkqPbQKa4cJhccXn8V-111" target="E6jkqPbQKa4cJhccXn8V-111" edge="1">
          <mxGeometry width="50" height="50" relative="1" as="geometry">
            <mxPoint x="1645" y="760" as="sourcePoint" />
            <mxPoint x="1695" y="710" as="targetPoint" />
            <Array as="points">
              <mxPoint x="1650" y="770" />
              <mxPoint x="1690" y="790" />
              <mxPoint x="1645" y="710" />
              <mxPoint x="1760" y="720" />
              <mxPoint x="1760" y="680" />
            </Array>
          </mxGeometry>
        </mxCell>
        <mxCell id="E6jkqPbQKa4cJhccXn8V-127" value="State" style="ellipse;whiteSpace=wrap;html=1;fontSize=19;" parent="1" vertex="1">
          <mxGeometry x="-589" y="281.90999999999997" width="120" height="80" as="geometry" />
        </mxCell>
        <mxCell id="E6jkqPbQKa4cJhccXn8V-129" value="Street" style="ellipse;whiteSpace=wrap;html=1;fontSize=19;" parent="1" vertex="1">
          <mxGeometry x="-579" y="381.90999999999997" width="120" height="80" as="geometry" />
        </mxCell>
        <mxCell id="E6jkqPbQKa4cJhccXn8V-130" value="Zipcode" style="ellipse;whiteSpace=wrap;html=1;fontSize=19;" parent="1" vertex="1">
          <mxGeometry x="-599" y="507.90999999999997" width="120" height="80" as="geometry" />
        </mxCell>
        <mxCell id="E6jkqPbQKa4cJhccXn8V-131" value="City" style="ellipse;whiteSpace=wrap;html=1;fontSize=19;" parent="1" vertex="1">
          <mxGeometry x="-379" y="512.91" width="120" height="80" as="geometry" />
        </mxCell>
        <mxCell id="E6jkqPbQKa4cJhccXn8V-132" value="Name" style="ellipse;whiteSpace=wrap;html=1;fontSize=19;fontStyle=0;align=center;" parent="1" vertex="1">
          <mxGeometry x="400" y="420" width="120" height="80" as="geometry" />
        </mxCell>
        <mxCell id="E6jkqPbQKa4cJhccXn8V-138" value="" style="endArrow=none;html=1;rounded=0;entryX=0.75;entryY=1;entryDx=0;entryDy=0;exitX=0.5;exitY=1;exitDx=0;exitDy=0;" parent="1" source="E6jkqPbQKa4cJhccXn8V-202" target="E6jkqPbQKa4cJhccXn8V-61" edge="1">
          <mxGeometry width="50" height="50" relative="1" as="geometry">
            <mxPoint x="225" y="-105" as="sourcePoint" />
            <mxPoint x="230" y="-40" as="targetPoint" />
          </mxGeometry>
        </mxCell>
        <mxCell id="E6jkqPbQKa4cJhccXn8V-139" value="Seller ID" style="ellipse;whiteSpace=wrap;html=1;fontSize=19;fontStyle=4" parent="1" vertex="1">
          <mxGeometry x="930" y="530" width="120" height="80" as="geometry" />
        </mxCell>
        <mxCell id="E6jkqPbQKa4cJhccXn8V-143" value="Business Address" style="ellipse;whiteSpace=wrap;html=1;fontSize=19;" parent="1" vertex="1">
          <mxGeometry x="930" y="440" width="120" height="80" as="geometry" />
        </mxCell>
        <mxCell id="E6jkqPbQKa4cJhccXn8V-144" value="Business Name" style="ellipse;whiteSpace=wrap;html=1;fontSize=19;fontStyle=4" parent="1" vertex="1">
          <mxGeometry x="940" y="380" width="120" height="50" as="geometry" />
        </mxCell>
        <mxCell id="E6jkqPbQKa4cJhccXn8V-150" value="Name" style="ellipse;whiteSpace=wrap;html=1;fontSize=19;" parent="1" vertex="1">
          <mxGeometry x="1950" y="350" width="120" height="80" as="geometry" />
        </mxCell>
        <mxCell id="E6jkqPbQKa4cJhccXn8V-151" value="Category ID" style="ellipse;whiteSpace=wrap;html=1;fontSize=19;fontStyle=4" parent="1" vertex="1">
          <mxGeometry x="1950" y="580" width="120" height="80" as="geometry" />
        </mxCell>
        <mxCell id="E6jkqPbQKa4cJhccXn8V-153" value="" style="endArrow=none;html=1;rounded=0;entryX=0;entryY=0.5;entryDx=0;entryDy=0;exitX=0.25;exitY=0;exitDx=0;exitDy=0;" parent="1" source="E6jkqPbQKa4cJhccXn8V-116" target="E6jkqPbQKa4cJhccXn8V-150" edge="1">
          <mxGeometry width="50" height="50" relative="1" as="geometry">
            <mxPoint x="1810" y="440" as="sourcePoint" />
            <mxPoint x="1860" y="390" as="targetPoint" />
          </mxGeometry>
        </mxCell>
        <mxCell id="E6jkqPbQKa4cJhccXn8V-154" value="" style="endArrow=none;html=1;rounded=0;exitX=0;exitY=0.5;exitDx=0;exitDy=0;entryX=0.5;entryY=1;entryDx=0;entryDy=0;" parent="1" source="E6jkqPbQKa4cJhccXn8V-151" target="E6jkqPbQKa4cJhccXn8V-116" edge="1">
          <mxGeometry width="50" height="50" relative="1" as="geometry">
            <mxPoint x="1710" y="530" as="sourcePoint" />
            <mxPoint x="1760" y="480" as="targetPoint" />
          </mxGeometry>
        </mxCell>
        <mxCell id="E6jkqPbQKa4cJhccXn8V-155" value="Order ID" style="ellipse;whiteSpace=wrap;html=1;fontStyle=4" parent="1" vertex="1">
          <mxGeometry x="1455" y="-50" width="120" height="80" as="geometry" />
        </mxCell>
        <mxCell id="E6jkqPbQKa4cJhccXn8V-156" value="" style="endArrow=none;html=1;rounded=0;entryX=0;entryY=0.5;entryDx=0;entryDy=0;exitX=1;exitY=0.5;exitDx=0;exitDy=0;" parent="1" source="E6jkqPbQKa4cJhccXn8V-101" target="E6jkqPbQKa4cJhccXn8V-155" edge="1">
          <mxGeometry width="50" height="50" relative="1" as="geometry">
            <mxPoint x="1630" as="sourcePoint" />
            <mxPoint x="1680" y="-50" as="targetPoint" />
          </mxGeometry>
        </mxCell>
        <mxCell id="E6jkqPbQKa4cJhccXn8V-159" value="" style="endArrow=none;html=1;rounded=0;entryX=0;entryY=0.5;entryDx=0;entryDy=0;exitX=1;exitY=0.625;exitDx=0;exitDy=0;exitPerimeter=0;" parent="1" source="E6jkqPbQKa4cJhccXn8V-127" target="MPdftPxLdbwKFS1tzOI9-7" edge="1">
          <mxGeometry width="50" height="50" relative="1" as="geometry">
            <mxPoint x="-419" y="331.90999999999997" as="sourcePoint" />
            <mxPoint x="-404" y="426.90999999999985" as="targetPoint" />
          </mxGeometry>
        </mxCell>
        <mxCell id="E6jkqPbQKa4cJhccXn8V-163" value="" style="endArrow=none;html=1;rounded=0;exitX=1;exitY=0.5;exitDx=0;exitDy=0;entryX=0;entryY=0.5;entryDx=0;entryDy=0;" parent="1" source="E6jkqPbQKa4cJhccXn8V-129" target="MPdftPxLdbwKFS1tzOI9-7" edge="1">
          <mxGeometry width="50" height="50" relative="1" as="geometry">
            <mxPoint x="-349" y="391.90999999999997" as="sourcePoint" />
            <mxPoint x="-404" y="426.90999999999985" as="targetPoint" />
          </mxGeometry>
        </mxCell>
        <mxCell id="E6jkqPbQKa4cJhccXn8V-164" value="" style="endArrow=none;html=1;rounded=0;exitX=1;exitY=0;exitDx=0;exitDy=0;entryX=0;entryY=0.5;entryDx=0;entryDy=0;" parent="1" source="E6jkqPbQKa4cJhccXn8V-130" target="MPdftPxLdbwKFS1tzOI9-7" edge="1">
          <mxGeometry width="50" height="50" relative="1" as="geometry">
            <mxPoint x="-349" y="391.90999999999997" as="sourcePoint" />
            <mxPoint x="-404" y="426.90999999999985" as="targetPoint" />
          </mxGeometry>
        </mxCell>
        <mxCell id="E6jkqPbQKa4cJhccXn8V-166" value="" style="endArrow=none;html=1;rounded=0;entryX=0.189;entryY=1.021;entryDx=0;entryDy=0;entryPerimeter=0;" parent="1" target="MPdftPxLdbwKFS1tzOI9-7" edge="1">
          <mxGeometry width="50" height="50" relative="1" as="geometry">
            <mxPoint x="-319" y="511.90999999999997" as="sourcePoint" />
            <mxPoint x="-374" y="471.90999999999985" as="targetPoint" />
          </mxGeometry>
        </mxCell>
        <mxCell id="E6jkqPbQKa4cJhccXn8V-167" value="" style="endArrow=classic;html=1;rounded=0;exitX=1;exitY=0.5;exitDx=0;exitDy=0;entryX=0;entryY=0.5;entryDx=0;entryDy=0;" parent="1" target="MPdftPxLdbwKFS1tzOI9-8" edge="1">
          <mxGeometry width="50" height="50" relative="1" as="geometry">
            <mxPoint x="-284" y="426.90999999999985" as="sourcePoint" />
            <mxPoint x="-80" y="370" as="targetPoint" />
          </mxGeometry>
        </mxCell>
        <mxCell id="E6jkqPbQKa4cJhccXn8V-168" value="" style="endArrow=none;html=1;rounded=0;exitX=0;exitY=0.5;exitDx=0;exitDy=0;entryX=1;entryY=1;entryDx=0;entryDy=0;" parent="1" source="E6jkqPbQKa4cJhccXn8V-132" target="E6jkqPbQKa4cJhccXn8V-61" edge="1">
          <mxGeometry width="50" height="50" relative="1" as="geometry">
            <mxPoint x="-140" y="280" as="sourcePoint" />
            <mxPoint x="160" y="310" as="targetPoint" />
          </mxGeometry>
        </mxCell>
        <mxCell id="E6jkqPbQKa4cJhccXn8V-170" value="" style="endArrow=none;html=1;rounded=0;exitX=0.5;exitY=0;exitDx=0;exitDy=0;entryX=0;entryY=0.5;entryDx=0;entryDy=0;" parent="1" source="E6jkqPbQKa4cJhccXn8V-91" target="E6jkqPbQKa4cJhccXn8V-105" edge="1">
          <mxGeometry width="50" height="50" relative="1" as="geometry">
            <mxPoint x="1020" y="260" as="sourcePoint" />
            <mxPoint x="1070" y="210" as="targetPoint" />
          </mxGeometry>
        </mxCell>
        <mxCell id="E6jkqPbQKa4cJhccXn8V-172" value="" style="endArrow=none;html=1;rounded=0;entryX=0;entryY=0.5;entryDx=0;entryDy=0;exitX=1;exitY=0;exitDx=0;exitDy=0;" parent="1" source="E6jkqPbQKa4cJhccXn8V-91" target="E6jkqPbQKa4cJhccXn8V-144" edge="1">
          <mxGeometry width="50" height="50" relative="1" as="geometry">
            <mxPoint x="840" y="450" as="sourcePoint" />
            <mxPoint x="1070" y="210" as="targetPoint" />
          </mxGeometry>
        </mxCell>
        <mxCell id="E6jkqPbQKa4cJhccXn8V-173" value="" style="endArrow=none;html=1;rounded=0;exitX=1;exitY=0.5;exitDx=0;exitDy=0;entryX=0;entryY=0.5;entryDx=0;entryDy=0;" parent="1" source="E6jkqPbQKa4cJhccXn8V-91" target="E6jkqPbQKa4cJhccXn8V-143" edge="1">
          <mxGeometry width="50" height="50" relative="1" as="geometry">
            <mxPoint x="1020" y="260" as="sourcePoint" />
            <mxPoint x="1070" y="210" as="targetPoint" />
          </mxGeometry>
        </mxCell>
        <mxCell id="E6jkqPbQKa4cJhccXn8V-174" value="" style="endArrow=none;html=1;rounded=0;exitX=1;exitY=0.5;exitDx=0;exitDy=0;entryX=0;entryY=0.5;entryDx=0;entryDy=0;" parent="1" source="E6jkqPbQKa4cJhccXn8V-91" target="E6jkqPbQKa4cJhccXn8V-139" edge="1">
          <mxGeometry width="50" height="50" relative="1" as="geometry">
            <mxPoint x="1020" y="260" as="sourcePoint" />
            <mxPoint x="1070" y="210" as="targetPoint" />
          </mxGeometry>
        </mxCell>
        <mxCell id="E6jkqPbQKa4cJhccXn8V-175" value="" style="endArrow=none;html=1;rounded=0;entryX=0.5;entryY=1;entryDx=0;entryDy=0;exitX=0;exitY=0;exitDx=0;exitDy=0;" parent="1" source="E6jkqPbQKa4cJhccXn8V-105" target="E6jkqPbQKa4cJhccXn8V-93" edge="1">
          <mxGeometry width="50" height="50" relative="1" as="geometry">
            <mxPoint x="1020" y="260" as="sourcePoint" />
            <mxPoint x="1070" y="210" as="targetPoint" />
          </mxGeometry>
        </mxCell>
        <mxCell id="E6jkqPbQKa4cJhccXn8V-176" value="" style="endArrow=none;html=1;rounded=0;entryX=0;entryY=0.5;entryDx=0;entryDy=0;exitX=1;exitY=0.25;exitDx=0;exitDy=0;" parent="1" source="E6jkqPbQKa4cJhccXn8V-93" target="E6jkqPbQKa4cJhccXn8V-101" edge="1">
          <mxGeometry width="50" height="50" relative="1" as="geometry">
            <mxPoint x="860" as="sourcePoint" />
            <mxPoint x="1070" y="210" as="targetPoint" />
          </mxGeometry>
        </mxCell>
        <mxCell id="E6jkqPbQKa4cJhccXn8V-179" value="" style="endArrow=none;html=1;rounded=0;exitX=1;exitY=0.5;exitDx=0;exitDy=0;entryX=0;entryY=0.5;entryDx=0;entryDy=0;" parent="1" source="E6jkqPbQKa4cJhccXn8V-105" target="E6jkqPbQKa4cJhccXn8V-109" edge="1">
          <mxGeometry width="50" height="50" relative="1" as="geometry">
            <mxPoint x="1620" y="410" as="sourcePoint" />
            <mxPoint x="1670" y="360" as="targetPoint" />
          </mxGeometry>
        </mxCell>
        <mxCell id="E6jkqPbQKa4cJhccXn8V-180" value="" style="endArrow=none;html=1;rounded=0;exitX=0.5;exitY=0;exitDx=0;exitDy=0;entryX=0;entryY=0.5;entryDx=0;entryDy=0;" parent="1" source="E6jkqPbQKa4cJhccXn8V-101" target="E6jkqPbQKa4cJhccXn8V-181" edge="1">
          <mxGeometry width="50" height="50" relative="1" as="geometry">
            <mxPoint x="1190" y="-70" as="sourcePoint" />
            <mxPoint x="1240" y="-120" as="targetPoint" />
          </mxGeometry>
        </mxCell>
        <mxCell id="E6jkqPbQKa4cJhccXn8V-181" value="Date" style="ellipse;whiteSpace=wrap;html=1;" parent="1" vertex="1">
          <mxGeometry x="1335" y="-185" width="120" height="80" as="geometry" />
        </mxCell>
        <mxCell id="E6jkqPbQKa4cJhccXn8V-182" value="Transaction ID" style="ellipse;whiteSpace=wrap;html=1;" parent="1" vertex="1">
          <mxGeometry x="1030" y="-245" width="120" height="80" as="geometry" />
        </mxCell>
        <mxCell id="E6jkqPbQKa4cJhccXn8V-183" value="" style="endArrow=none;html=1;rounded=0;entryX=0.5;entryY=0;entryDx=0;entryDy=0;exitX=0.716;exitY=0.91;exitDx=0;exitDy=0;exitPerimeter=0;" parent="1" source="E6jkqPbQKa4cJhccXn8V-182" target="E6jkqPbQKa4cJhccXn8V-101" edge="1">
          <mxGeometry width="50" height="50" relative="1" as="geometry">
            <mxPoint x="1050" y="-60" as="sourcePoint" />
            <mxPoint x="1100" y="-110" as="targetPoint" />
          </mxGeometry>
        </mxCell>
        <mxCell id="E6jkqPbQKa4cJhccXn8V-184" value="" style="endArrow=none;html=1;rounded=0;exitX=0.5;exitY=0;exitDx=0;exitDy=0;entryX=0.5;entryY=1;entryDx=0;entryDy=0;" parent="1" source="E6jkqPbQKa4cJhccXn8V-91" target="E6jkqPbQKa4cJhccXn8V-101" edge="1">
          <mxGeometry width="50" height="50" relative="1" as="geometry">
            <mxPoint x="1110" y="290" as="sourcePoint" />
            <mxPoint x="1160" y="240" as="targetPoint" />
          </mxGeometry>
        </mxCell>
        <mxCell id="E6jkqPbQKa4cJhccXn8V-185" value="Date" style="ellipse;whiteSpace=wrap;html=1;" parent="1" vertex="1">
          <mxGeometry x="1160" y="395" width="120" height="80" as="geometry" />
        </mxCell>
        <mxCell id="E6jkqPbQKa4cJhccXn8V-186" value="" style="endArrow=none;html=1;rounded=0;entryX=0.5;entryY=1;entryDx=0;entryDy=0;exitX=0.5;exitY=0;exitDx=0;exitDy=0;" parent="1" source="E6jkqPbQKa4cJhccXn8V-185" target="E6jkqPbQKa4cJhccXn8V-105" edge="1">
          <mxGeometry width="50" height="50" relative="1" as="geometry">
            <mxPoint x="1100" y="370" as="sourcePoint" />
            <mxPoint x="1150" y="320" as="targetPoint" />
          </mxGeometry>
        </mxCell>
        <mxCell id="E6jkqPbQKa4cJhccXn8V-187" value="ID" style="ellipse;whiteSpace=wrap;html=1;fontStyle=4" parent="1" vertex="1">
          <mxGeometry x="1050" y="430" width="120" height="80" as="geometry" />
        </mxCell>
        <mxCell id="E6jkqPbQKa4cJhccXn8V-188" value="" style="endArrow=none;html=1;rounded=0;exitX=0.407;exitY=-0.012;exitDx=0;exitDy=0;exitPerimeter=0;entryX=0;entryY=1;entryDx=0;entryDy=0;" parent="1" source="E6jkqPbQKa4cJhccXn8V-187" target="E6jkqPbQKa4cJhccXn8V-105" edge="1">
          <mxGeometry width="50" height="50" relative="1" as="geometry">
            <mxPoint x="1120" y="310" as="sourcePoint" />
            <mxPoint x="1160" y="310" as="targetPoint" />
          </mxGeometry>
        </mxCell>
        <mxCell id="E6jkqPbQKa4cJhccXn8V-189" value="Publishing Date" style="ellipse;whiteSpace=wrap;html=1;" parent="1" vertex="1">
          <mxGeometry x="1210" y="900" width="120" height="80" as="geometry" />
        </mxCell>
        <mxCell id="E6jkqPbQKa4cJhccXn8V-190" value="" style="endArrow=none;html=1;rounded=0;entryX=0.5;entryY=1;entryDx=0;entryDy=0;exitX=0.5;exitY=0;exitDx=0;exitDy=0;" parent="1" source="E6jkqPbQKa4cJhccXn8V-189" target="E6jkqPbQKa4cJhccXn8V-107" edge="1">
          <mxGeometry width="50" height="50" relative="1" as="geometry">
            <mxPoint x="1210" y="760" as="sourcePoint" />
            <mxPoint x="1260" y="710" as="targetPoint" />
          </mxGeometry>
        </mxCell>
        <mxCell id="E6jkqPbQKa4cJhccXn8V-191" value="Support level" style="ellipse;whiteSpace=wrap;html=1;" parent="1" vertex="1">
          <mxGeometry x="720" y="890" width="120" height="80" as="geometry" />
        </mxCell>
        <mxCell id="E6jkqPbQKa4cJhccXn8V-192" value="" style="endArrow=none;html=1;rounded=0;exitX=0.5;exitY=0;exitDx=0;exitDy=0;entryX=0.5;entryY=1;entryDx=0;entryDy=0;" parent="1" source="E6jkqPbQKa4cJhccXn8V-191" target="E6jkqPbQKa4cJhccXn8V-89" edge="1">
          <mxGeometry width="50" height="50" relative="1" as="geometry">
            <mxPoint x="660" y="830" as="sourcePoint" />
            <mxPoint x="710" y="780" as="targetPoint" />
          </mxGeometry>
        </mxCell>
        <mxCell id="E6jkqPbQKa4cJhccXn8V-194" value="Buyer ID" style="ellipse;whiteSpace=wrap;html=1;fontStyle=4" parent="1" vertex="1">
          <mxGeometry x="680" y="-220" width="120" height="80" as="geometry" />
        </mxCell>
        <mxCell id="E6jkqPbQKa4cJhccXn8V-196" value="" style="endArrow=none;html=1;rounded=0;entryX=0.5;entryY=1;entryDx=0;entryDy=0;exitX=0.5;exitY=0;exitDx=0;exitDy=0;" parent="1" source="E6jkqPbQKa4cJhccXn8V-93" target="E6jkqPbQKa4cJhccXn8V-194" edge="1">
          <mxGeometry width="50" height="50" relative="1" as="geometry">
            <mxPoint x="720" y="-60" as="sourcePoint" />
            <mxPoint x="770" y="-110" as="targetPoint" />
          </mxGeometry>
        </mxCell>
        <mxCell id="E6jkqPbQKa4cJhccXn8V-197" value="Helpdesk ID" style="ellipse;whiteSpace=wrap;html=1;fontStyle=4" parent="1" vertex="1">
          <mxGeometry x="490" y="810" width="120" height="80" as="geometry" />
        </mxCell>
        <mxCell id="E6jkqPbQKa4cJhccXn8V-198" value="" style="endArrow=none;html=1;rounded=0;entryX=0;entryY=0.5;entryDx=0;entryDy=0;" parent="1" source="E6jkqPbQKa4cJhccXn8V-197" target="E6jkqPbQKa4cJhccXn8V-89" edge="1">
          <mxGeometry width="50" height="50" relative="1" as="geometry">
            <mxPoint x="630" y="790" as="sourcePoint" />
            <mxPoint x="680" y="740" as="targetPoint" />
          </mxGeometry>
        </mxCell>
        <mxCell id="E6jkqPbQKa4cJhccXn8V-199" value="Password" style="ellipse;whiteSpace=wrap;html=1;" parent="1" vertex="1">
          <mxGeometry x="165" y="-210" width="120" height="80" as="geometry" />
        </mxCell>
        <mxCell id="E6jkqPbQKa4cJhccXn8V-202" value="User ID" style="ellipse;whiteSpace=wrap;html=1;fontStyle=4" parent="1" vertex="1">
          <mxGeometry x="280" y="530" width="120" height="80" as="geometry" />
        </mxCell>
        <mxCell id="E6jkqPbQKa4cJhccXn8V-204" value="Discount Value" style="ellipse;whiteSpace=wrap;html=1;" parent="1" vertex="1">
          <mxGeometry x="1780" y="120" width="120" height="80" as="geometry" />
        </mxCell>
        <mxCell id="E6jkqPbQKa4cJhccXn8V-205" value="" style="endArrow=none;html=1;rounded=0;exitX=0.5;exitY=0;exitDx=0;exitDy=0;entryX=0.5;entryY=1;entryDx=0;entryDy=0;" parent="1" source="E6jkqPbQKa4cJhccXn8V-122" target="E6jkqPbQKa4cJhccXn8V-204" edge="1">
          <mxGeometry width="50" height="50" relative="1" as="geometry">
            <mxPoint x="1700" y="210" as="sourcePoint" />
            <mxPoint x="1750" y="160" as="targetPoint" />
          </mxGeometry>
        </mxCell>
        <mxCell id="E6jkqPbQKa4cJhccXn8V-206" value="Date start" style="ellipse;whiteSpace=wrap;html=1;" parent="1" vertex="1">
          <mxGeometry x="1970" y="245" width="120" height="80" as="geometry" />
        </mxCell>
        <mxCell id="E6jkqPbQKa4cJhccXn8V-207" value="" style="endArrow=none;html=1;rounded=0;exitX=1;exitY=0.5;exitDx=0;exitDy=0;entryX=0;entryY=0.5;entryDx=0;entryDy=0;" parent="1" source="E6jkqPbQKa4cJhccXn8V-122" target="E6jkqPbQKa4cJhccXn8V-206" edge="1">
          <mxGeometry width="50" height="50" relative="1" as="geometry">
            <mxPoint x="1900" y="310" as="sourcePoint" />
            <mxPoint x="1950" y="260" as="targetPoint" />
          </mxGeometry>
        </mxCell>
        <mxCell id="E6jkqPbQKa4cJhccXn8V-208" value="Valid Thru" style="ellipse;whiteSpace=wrap;html=1;" parent="1" vertex="1">
          <mxGeometry x="1920" y="139" width="120" height="80" as="geometry" />
        </mxCell>
        <mxCell id="E6jkqPbQKa4cJhccXn8V-209" value="" style="endArrow=none;html=1;rounded=0;exitX=1;exitY=0;exitDx=0;exitDy=0;entryX=0;entryY=1;entryDx=0;entryDy=0;" parent="1" source="E6jkqPbQKa4cJhccXn8V-122" target="E6jkqPbQKa4cJhccXn8V-208" edge="1">
          <mxGeometry width="50" height="50" relative="1" as="geometry">
            <mxPoint x="1870" y="260" as="sourcePoint" />
            <mxPoint x="1920" y="210" as="targetPoint" />
          </mxGeometry>
        </mxCell>
        <mxCell id="E6jkqPbQKa4cJhccXn8V-211" value="Card Name" style="ellipse;whiteSpace=wrap;html=1;fontSize=15;" parent="1" vertex="1">
          <mxGeometry x="-560" y="-136" width="120" height="80" as="geometry" />
        </mxCell>
        <mxCell id="TwQsWTmfTukqnIESNivL-15" value="Email" style="ellipse;whiteSpace=wrap;html=1;" parent="1" vertex="1">
          <mxGeometry x="90" y="450" width="120" height="80" as="geometry" />
        </mxCell>
        <mxCell id="E6jkqPbQKa4cJhccXn8V-213" value="CVV" style="ellipse;whiteSpace=wrap;html=1;fontSize=14;" parent="1" vertex="1">
          <mxGeometry x="-570" y="4" width="120" height="80" as="geometry" />
        </mxCell>
        <mxCell id="E6jkqPbQKa4cJhccXn8V-214" value="" style="endArrow=none;html=1;rounded=0;entryX=0;entryY=0.25;entryDx=0;entryDy=0;exitX=1;exitY=0.5;exitDx=0;exitDy=0;" parent="1" source="E6jkqPbQKa4cJhccXn8V-213" target="MPdftPxLdbwKFS1tzOI9-9" edge="1">
          <mxGeometry width="50" height="50" relative="1" as="geometry">
            <mxPoint x="-440" y="-6" as="sourcePoint" />
            <mxPoint x="-360" y="44" as="targetPoint" />
          </mxGeometry>
        </mxCell>
        <mxCell id="E6jkqPbQKa4cJhccXn8V-215" value="" style="endArrow=none;html=1;rounded=0;exitX=1;exitY=1;exitDx=0;exitDy=0;" parent="1" source="E6jkqPbQKa4cJhccXn8V-211" edge="1">
          <mxGeometry width="50" height="50" relative="1" as="geometry">
            <mxPoint x="-490" y="-96" as="sourcePoint" />
            <mxPoint x="-350" y="30" as="targetPoint" />
          </mxGeometry>
        </mxCell>
        <mxCell id="E6jkqPbQKa4cJhccXn8V-216" value="" style="endArrow=none;html=1;rounded=0;entryX=0.5;entryY=1;entryDx=0;entryDy=0;" parent="1" target="MPdftPxLdbwKFS1tzOI9-17" edge="1">
          <mxGeometry width="50" height="50" relative="1" as="geometry">
            <mxPoint x="-300" y="30" as="sourcePoint" />
            <mxPoint x="-330" y="-56" as="targetPoint" />
          </mxGeometry>
        </mxCell>
        <mxCell id="E6jkqPbQKa4cJhccXn8V-218" value="" style="endArrow=classic;html=1;rounded=0;exitX=1;exitY=1;exitDx=0;exitDy=0;entryX=0;entryY=0.5;entryDx=0;entryDy=0;" parent="1" target="MPdftPxLdbwKFS1tzOI9-10" edge="1">
          <mxGeometry width="50" height="50" relative="1" as="geometry">
            <mxPoint x="-240" y="74" as="sourcePoint" />
            <mxPoint x="-100" y="155" as="targetPoint" />
          </mxGeometry>
        </mxCell>
        <mxCell id="E6jkqPbQKa4cJhccXn8V-220" value="" style="endArrow=none;html=1;rounded=0;entryX=0;entryY=0.75;entryDx=0;entryDy=0;exitX=0.5;exitY=0;exitDx=0;exitDy=0;" parent="1" source="TwQsWTmfTukqnIESNivL-15" target="E6jkqPbQKa4cJhccXn8V-61" edge="1">
          <mxGeometry width="50" height="50" relative="1" as="geometry">
            <mxPoint x="110" y="430" as="sourcePoint" />
            <mxPoint x="160" y="380" as="targetPoint" />
          </mxGeometry>
        </mxCell>
        <mxCell id="E6jkqPbQKa4cJhccXn8V-222" value="" style="endArrow=classic;html=1;rounded=0;exitX=0;exitY=0.5;exitDx=0;exitDy=0;entryX=1;entryY=0.5;entryDx=0;entryDy=0;strokeWidth=6;" parent="1" source="E6jkqPbQKa4cJhccXn8V-122" target="E6jkqPbQKa4cJhccXn8V-109" edge="1">
          <mxGeometry width="50" height="50" relative="1" as="geometry">
            <mxPoint x="1670" y="340" as="sourcePoint" />
            <mxPoint x="1720" y="290" as="targetPoint" />
          </mxGeometry>
        </mxCell>
        <mxCell id="MPdftPxLdbwKFS1tzOI9-2" value="" style="endArrow=none;html=1;rounded=0;entryX=0;entryY=0;entryDx=0;entryDy=0;exitX=1;exitY=0.5;exitDx=0;exitDy=0;" edge="1" parent="1" source="MPdftPxLdbwKFS1tzOI9-10" target="E6jkqPbQKa4cJhccXn8V-61">
          <mxGeometry width="50" height="50" relative="1" as="geometry">
            <mxPoint x="12.807881773399004" y="175.39408866995063" as="sourcePoint" />
            <mxPoint x="30" y="234" as="targetPoint" />
          </mxGeometry>
        </mxCell>
        <mxCell id="MPdftPxLdbwKFS1tzOI9-3" value="" style="endArrow=none;html=1;rounded=0;exitX=1;exitY=0.5;exitDx=0;exitDy=0;" edge="1" parent="1" source="MPdftPxLdbwKFS1tzOI9-8">
          <mxGeometry width="50" height="50" relative="1" as="geometry">
            <mxPoint x="40" y="370" as="sourcePoint" />
            <mxPoint x="160" y="320" as="targetPoint" />
          </mxGeometry>
        </mxCell>
        <mxCell id="MPdftPxLdbwKFS1tzOI9-5" value="" style="endArrow=none;html=1;rounded=0;entryX=0.15;entryY=0.965;entryDx=0;entryDy=0;entryPerimeter=0;" edge="1" parent="1" target="MPdftPxLdbwKFS1tzOI9-7">
          <mxGeometry width="50" height="50" relative="1" as="geometry">
            <mxPoint x="-407.9363373917033" y="620.0062859280442" as="sourcePoint" />
            <mxPoint x="-404" y="471.90999999999985" as="targetPoint" />
          </mxGeometry>
        </mxCell>
        <mxCell id="MPdftPxLdbwKFS1tzOI9-6" value="&lt;span style=&quot;border-bottom: 1px dotted&quot;&gt;AdressID&lt;/span&gt;" style="ellipse;whiteSpace=wrap;html=1;align=center;" vertex="1" parent="1">
          <mxGeometry x="-460" y="620" width="120" height="60" as="geometry" />
        </mxCell>
        <mxCell id="MPdftPxLdbwKFS1tzOI9-7" value="Address" style="shape=ext;margin=3;double=1;whiteSpace=wrap;html=1;align=center;" vertex="1" parent="1">
          <mxGeometry x="-400" y="401.91" width="120" height="48.09" as="geometry" />
        </mxCell>
        <mxCell id="MPdftPxLdbwKFS1tzOI9-8" value="Lives_in" style="shape=rhombus;double=1;perimeter=rhombusPerimeter;whiteSpace=wrap;html=1;align=center;" vertex="1" parent="1">
          <mxGeometry x="-80" y="341.90999999999997" width="120" height="60" as="geometry" />
        </mxCell>
        <mxCell id="MPdftPxLdbwKFS1tzOI9-9" value="&lt;span style=&quot;font-size: 17px;&quot;&gt;Card Details&lt;/span&gt;" style="shape=ext;margin=3;double=1;whiteSpace=wrap;html=1;align=center;" vertex="1" parent="1">
          <mxGeometry x="-350" y="34" width="110" height="50" as="geometry" />
        </mxCell>
        <mxCell id="MPdftPxLdbwKFS1tzOI9-10" value="Payment" style="shape=rhombus;double=1;perimeter=rhombusPerimeter;whiteSpace=wrap;html=1;align=center;" vertex="1" parent="1">
          <mxGeometry x="-90" y="129.99999999999997" width="120" height="60" as="geometry" />
        </mxCell>
        <mxCell id="MPdftPxLdbwKFS1tzOI9-12" value="" style="endArrow=classic;html=1;rounded=0;exitX=0.5;exitY=0;exitDx=0;exitDy=0;entryX=0.5;entryY=1;entryDx=0;entryDy=0;" edge="1" parent="1" source="E6jkqPbQKa4cJhccXn8V-61" target="E6jkqPbQKa4cJhccXn8V-63">
          <mxGeometry width="50" height="50" relative="1" as="geometry">
            <mxPoint x="-80" y="16" as="sourcePoint" />
            <mxPoint x="70" y="102" as="targetPoint" />
          </mxGeometry>
        </mxCell>
        <mxCell id="MPdftPxLdbwKFS1tzOI9-15" value="" style="shape=flexArrow;endArrow=classic;html=1;rounded=0;exitX=0.5;exitY=1;exitDx=0;exitDy=0;entryX=0.5;entryY=0;entryDx=0;entryDy=0;fillColor=light-dark(#0d0d0d, #ededed);" edge="1" parent="1" source="E6jkqPbQKa4cJhccXn8V-78" target="E6jkqPbQKa4cJhccXn8V-63">
          <mxGeometry width="50" height="50" relative="1" as="geometry">
            <mxPoint x="90.59999999999988" y="-1.1368683772161603e-13" as="sourcePoint" />
            <mxPoint x="89.99999999999997" y="96.6600000000002" as="targetPoint" />
            <Array as="points" />
          </mxGeometry>
        </mxCell>
        <mxCell id="MPdftPxLdbwKFS1tzOI9-16" value="" style="endArrow=none;html=1;rounded=0;exitX=0.5;exitY=1;exitDx=0;exitDy=0;entryX=0.5;entryY=0;entryDx=0;entryDy=0;" edge="1" parent="1" source="E6jkqPbQKa4cJhccXn8V-199" target="E6jkqPbQKa4cJhccXn8V-78">
          <mxGeometry width="50" height="50" relative="1" as="geometry">
            <mxPoint x="220" y="-130" as="sourcePoint" />
            <mxPoint x="328" y="-32" as="targetPoint" />
          </mxGeometry>
        </mxCell>
        <mxCell id="MPdftPxLdbwKFS1tzOI9-17" value="&lt;span style=&quot;border-bottom: 1px dotted&quot;&gt;Card_number&lt;/span&gt;" style="ellipse;whiteSpace=wrap;html=1;align=center;" vertex="1" parent="1">
          <mxGeometry x="-380" y="-130" width="120" height="54" as="geometry" />
        </mxCell>
      </root>
    </mxGraphModel>
  </diagram>
</mxfile>
